<svg id="Layer_1" data-name="Layer 1" xmlns="http://www.w3.org/2000/svg" viewBox="0 0 320 320"><defs><style>.cls-1{fill:#fff;}</style></defs><rect class="cls-1" x="59.53" y="104.86" width="52.26" height="10.05"/><rect class="cls-1" x="59.53" y="59.58" width="52.26" height="10.05"/><path class="cls-1" d="M-.43-.18v320h320V-.18ZM174,22.33H297.27V59.4H211.33V69.45h85.94v35.24H211.21v10h86.06v37.19H174ZM103.84,297.67H66.61V215.28h37.23Zm44.75-92.44H21.86V168.17H148.59Zm7.91-88.32c-1.77,20.07-16.48,35-49.66,35h-85V22.33h82.71c30.09,0,43.07,11.54,47.6,30.11,3.26,13.36-2.41,27.76-8.91,34C148.93,90.89,158.11,98.75,156.5,116.91ZM277.12,297.67l-41.63-31.45L193.9,297.67l15.88-50.88-41.62-31.47H219.6l15.9-50.91,15.91,50.91h51.42l-41.6,31.43Z" transform="translate(0.43 0.18)"/></svg>